# xmcd
#
# Track frame offsets:
#	151
#	20662
#	40815
#	62829
#
# Disc length: 1138 seconds
#
# Revision: 1
# Processed by: cddbd v1.5.2PL0 Copyright (c) Steve Scherf et al.
# Submitted via: EZCDAudioConverter 7.1.5.1
#
DISCID=2f047004
DTITLE=群星 - 叱咤中国风云榜
DYEAR=2005
DGENRE=
TTITLE0=庞龙 - 两只蝴蝶
TTITLE1=唐磊 - 丁香花
TTITLE2=东来东往 - 别说我的泪你无所谓
TTITLE3=唐磊 - 夏夜
EXTD=
EXTT0=
EXTT1=
EXTT2=
EXTT3=
PLAYORDER=
